<svg width="15" height="12" viewBox="0 0 15 12" fill="none" xmlns="http://www.w3.org/2000/svg">
<path d="M14.85 10.5853H0.15C0.0675 10.5853 0 10.656 0 10.7425V11.8428C0 11.9293 0.0675 12 0.15 12H14.85C14.9325 12 15 11.9293 15 11.8428V10.7425C15 10.656 14.9325 10.5853 14.85 10.5853ZM1.00687 8.12525L1.75125 8.90138C1.80937 8.96229 1.905 8.96229 1.96313 8.90138L6.36375 4.30553L8.19375 6.21736C8.30649 6.33442 8.45879 6.40009 8.6175 6.40009C8.77621 6.40009 8.92851 6.33442 9.04125 6.21736L13.995 1.04579C14.0531 0.984877 14.0531 0.884668 13.995 0.823757L13.2506 0.0456639C13.2224 0.0164104 13.1844 0 13.1447 0C13.105 0 13.0669 0.0164104 13.0388 0.0456639L8.61938 4.66313L6.7875 2.7513C6.67476 2.63424 6.52246 2.56857 6.36375 2.56857C6.20504 2.56857 6.05274 2.63424 5.94 2.7513L1.00687 7.90322C0.99285 7.91774 0.981714 7.93502 0.974113 7.95408C0.966513 7.97314 0.962599 7.99358 0.962599 8.01424C0.962599 8.03489 0.966513 8.05534 0.974113 8.0744C0.981714 8.09346 0.99285 8.11074 1.00687 8.12525Z" fill="white"/>
</svg>
